<svg width="122" height="37" viewBox="0 0 122 37" fill="none" xmlns="http://www.w3.org/2000/svg">
<path d="M38.0711 13.4545C38.0943 14.7764 38.0594 16.1927 37.9664 17.7034C37.8967 19.1904 37.7804 20.6893 37.6176 22.2C37.4549 23.6871 37.2456 25.1506 36.9898 26.5904C36.7573 28.0067 36.4782 29.2813 36.1527 30.4144C35.9202 31.2641 35.6062 32.0785 35.2109 32.8574C34.8156 33.6364 34.3273 34.3327 33.746 34.9464C33.1879 35.5601 32.5252 36.044 31.7579 36.3981C31.0138 36.7758 30.1534 36.9646 29.1768 36.9646C28.4559 36.9646 27.77 36.823 27.1189 36.5397C26.4678 36.2801 25.9213 35.8788 25.4795 35.3359C25.061 34.8166 24.7936 34.1675 24.6773 33.3885C24.561 32.6332 24.6773 31.748 25.0261 30.733C25.3982 29.6472 25.9097 28.5968 26.5608 27.5818C27.2119 26.5432 27.8746 25.5164 28.5489 24.5014C29.2233 23.4628 29.8395 22.4124 30.3976 21.3502C30.9789 20.288 31.3858 19.1668 31.6183 17.9866C31.7811 17.1841 31.7695 16.5349 31.5835 16.0392C31.4207 15.5199 31.1417 15.2249 30.7464 15.1541C30.3511 15.0596 29.8744 15.2131 29.3163 15.6144C28.7582 15.992 28.1769 16.6766 27.5723 17.6679C27.2003 18.2581 26.8282 18.919 26.4562 19.6507C26.0841 20.3589 25.6656 21.1496 25.2005 22.023C24.7587 22.8963 24.2588 23.8287 23.7007 24.8201C23.1426 25.8115 22.5031 26.8619 21.7823 27.9713C21.0615 29.0807 20.236 29.9305 19.3059 30.5206C18.3757 31.1107 17.5154 31.4057 16.7248 31.4057C15.9574 31.4293 15.3296 31.1343 14.8413 30.5206C14.3529 29.9305 14.1902 28.9863 14.353 27.688C14.446 26.9563 14.5855 26.1892 14.7715 25.3866C14.9575 24.5604 15.1087 23.7697 15.2249 23.0144C15.4342 21.6689 15.3528 20.6539 14.9808 19.9694C14.6087 19.2848 14.1204 18.9308 13.5158 18.9072C12.9113 18.86 12.2834 19.155 11.6323 19.7923C10.9813 20.4297 10.4813 21.4093 10.1325 22.7311C9.5977 24.8083 9.08613 26.8383 8.59782 28.8211C8.1095 30.8274 7.63282 32.6332 7.16776 34.2383C6.95848 34.9228 6.60968 35.4539 6.12137 35.8316C5.65631 36.2329 5.12149 36.5043 4.51691 36.6459C3.93558 36.7876 3.34263 36.7876 2.73805 36.6459C2.13347 36.5279 1.59865 36.2801 1.13359 35.9024C0.691778 35.5483 0.366236 35.0644 0.156958 34.4507C-0.0523194 33.837 -0.0523194 33.1053 0.156958 32.2555C0.273223 31.4293 0.424368 30.3907 0.610393 29.1397C0.796417 27.8887 1.01732 26.5196 1.2731 25.0325C1.55214 23.5455 1.86606 21.9876 2.21485 20.3589C2.5869 18.7065 2.99383 17.0778 3.43564 15.4727C3.9007 13.844 4.41227 12.2861 4.97034 10.799C5.52841 9.28836 6.14462 7.9193 6.81896 6.69187C7.51655 5.41723 8.30716 4.37863 9.19077 3.57608C10.0744 2.77353 10.9696 2.20702 11.8765 1.87656C12.7834 1.54609 13.667 1.42807 14.5273 1.52249C15.3877 1.61691 16.1551 1.91196 16.8294 2.40766C17.5037 2.90335 18.0502 3.58788 18.4687 4.46125C18.8873 5.33461 19.0966 6.37321 19.0966 7.57703C19.0966 8.66284 19.0152 9.77225 18.8524 10.9053C18.6896 12.0147 18.585 13.0651 18.5385 14.0565C18.4222 15.8268 18.492 17.1014 18.7478 17.8804C19.0268 18.6357 19.4105 18.978 19.8988 18.9072C20.3871 18.8364 20.9336 18.3997 21.5381 17.5971C22.166 16.771 22.7822 15.6734 23.3868 14.3043C23.6425 13.7142 23.9332 13.0061 24.2588 12.1799C24.5843 11.3301 24.9447 10.4568 25.34 9.55981C25.7586 8.63924 26.212 7.73046 26.7003 6.83349C27.1886 5.93652 27.7118 5.13397 28.2699 4.42584C28.8512 3.7177 29.4791 3.1512 30.1534 2.72632C30.8277 2.27783 31.5602 2.05359 32.3508 2.05359C33.1647 2.05359 33.9088 2.27783 34.5831 2.72632C35.2807 3.1512 35.8853 3.82392 36.3969 4.7445C36.9084 5.66507 37.3037 6.8453 37.5828 8.28517C37.885 9.72504 38.0478 11.4482 38.0711 13.4545Z" fill="white"/>
<path d="M54.7021 3.7177C56.1205 3.74131 57.3878 4.2134 58.504 5.13397C59.6201 6.05455 60.5619 7.27017 61.3292 8.78086C62.0966 10.2679 62.6663 11.9793 63.0383 13.9148C63.4336 15.8268 63.5964 17.786 63.5266 19.7923C63.4801 21.7751 63.1895 23.7225 62.6546 25.6344C62.1198 27.5464 61.3176 29.2459 60.2479 30.733C59.2016 32.2437 57.8645 33.4475 56.2368 34.3445C54.6323 35.2651 52.714 35.7254 50.4817 35.7254C48.0168 35.749 46.0054 35.3005 44.4475 34.3799C42.8895 33.4829 41.7153 32.2909 40.9247 30.8038C40.1341 29.3167 39.6806 27.6172 39.5644 25.7053C39.4713 23.7697 39.6457 21.7987 40.0875 19.7923C40.5294 17.7624 41.2153 15.7914 42.1454 13.8794C43.0988 11.9439 44.215 10.2207 45.4939 8.71005C46.7961 7.19936 48.2261 5.99554 49.7841 5.09857C51.342 4.17799 52.9814 3.7177 54.7021 3.7177ZM57.5273 21.5273C57.5971 21.0316 57.6552 20.3943 57.7017 19.6153C57.7482 18.8128 57.7482 17.963 57.7017 17.066C57.6785 16.1455 57.5971 15.2249 57.4576 14.3043C57.3181 13.3837 57.0972 12.5576 56.7949 11.8258C56.5158 11.0705 56.1438 10.4568 55.6787 9.98469C55.2137 9.5126 54.6323 9.26475 53.9347 9.24115C53.2372 9.24115 52.5861 9.46539 51.9815 9.91388C51.3769 10.3624 50.8188 10.9643 50.3073 11.7196C49.819 12.4514 49.3655 13.2775 48.947 14.1981C48.5517 15.0951 48.2029 15.992 47.9006 16.889C47.5983 17.786 47.3425 18.6239 47.1332 19.4029C46.9472 20.1818 46.8077 20.7955 46.7147 21.244C46.3891 22.8727 46.2729 24.3244 46.3659 25.599C46.4821 26.8501 46.7379 27.9005 47.1332 28.7502C47.5285 29.6 48.0285 30.2491 48.633 30.6976C49.2609 31.1461 49.9352 31.3703 50.6561 31.3703C51.3304 31.3703 52.0164 31.1697 52.714 30.7684C53.4348 30.3907 54.1091 29.8006 54.737 28.9981C55.3648 28.1955 55.9229 27.1805 56.4112 25.9531C56.8995 24.7021 57.2716 23.2268 57.5273 21.5273Z" fill="white"/>
<path d="M80.7013 0C81.9802 0 83.2475 0.21244 84.5032 0.637321C85.7588 1.0622 86.875 1.67592 87.8516 2.47847C88.8515 3.25742 89.6537 4.2134 90.2583 5.34641C90.8629 6.47943 91.1652 7.75407 91.1652 9.17034C91.1652 10.1381 90.9443 10.9171 90.5025 11.5072C90.0606 12.0737 89.5026 12.4986 88.8282 12.7818C88.1539 13.0415 87.433 13.1595 86.6657 13.1359C85.8983 13.0887 85.1775 12.9234 84.5032 12.6402C83.8288 12.3333 83.2707 11.9203 82.8289 11.401C82.3871 10.8817 82.1662 10.2561 82.1662 9.5244C82.1662 8.53302 82.0034 7.68325 81.6779 6.97512C81.3524 6.26699 80.8059 5.93652 80.0386 5.98373C79.713 6.00734 79.3875 6.12536 79.0619 6.3378C78.7596 6.55024 78.4806 6.82169 78.2248 7.15215C77.9923 7.45901 77.8063 7.81308 77.6668 8.21436C77.5272 8.61563 77.4691 9.02871 77.4924 9.45359C77.5389 10.5866 77.8412 11.7078 78.3992 12.8172C78.9573 13.903 79.6084 15.0478 80.3525 16.2517C80.8873 17.1014 81.4221 17.9984 81.957 18.9426C82.515 19.8632 83.0033 20.8309 83.4219 21.8459C83.8404 22.8609 84.166 23.9467 84.3985 25.1033C84.631 26.2364 84.7124 27.4402 84.6427 28.7148C84.5497 30.1783 84.2241 31.4293 83.666 32.4679C83.1312 33.5065 82.4336 34.3563 81.5733 35.0172C80.7362 35.7018 79.7712 36.1974 78.6783 36.5043C77.6086 36.8348 76.5041 37 75.3647 37C74.0625 37 72.7952 36.8112 71.5628 36.4335C70.3304 36.0558 69.2375 35.5129 68.2841 34.8048C67.3308 34.0966 66.5634 33.2351 65.9821 32.2201C65.4008 31.2051 65.1101 30.0603 65.1101 28.7856C65.1101 27.3458 65.3194 26.1537 65.7379 25.2096C66.1797 24.2654 66.7146 23.5573 67.3424 23.0852C67.9935 22.6131 68.6911 22.3888 69.4352 22.4124C70.1793 22.436 70.8652 22.6957 71.4931 23.1914C72.1442 23.6635 72.679 24.3834 73.0975 25.3512C73.5393 26.2954 73.7602 27.4756 73.7602 28.8919C73.7602 29.6944 73.9812 30.3435 74.423 30.8392C74.888 31.3349 75.481 31.5946 76.2018 31.6182C76.8529 31.6418 77.4459 31.4411 77.9807 31.0163C78.5155 30.5914 78.8178 29.8833 78.8875 28.8919C78.9573 27.688 78.7364 26.6022 78.2248 25.6344C77.7365 24.6667 77.1087 23.7579 76.3413 22.9081C75.5972 22.0348 74.8066 21.1968 73.9695 20.3943C73.1324 19.5681 72.4232 18.7065 71.8419 17.8096C70.9583 16.4405 70.2607 14.9888 69.7491 13.4545C69.2608 11.9203 69.0399 10.4096 69.0864 8.92249C69.1329 7.71866 69.377 6.58565 69.8189 5.52345C70.2607 4.43764 70.9466 3.49346 71.8767 2.69091C72.8069 1.86475 73.9928 1.21563 75.4345 0.743542C76.8762 0.247847 78.6318 0 80.7013 0Z" fill="white"/>
<path d="M105.975 0C107.254 0 108.522 0.21244 109.777 0.637321C111.033 1.0622 112.149 1.67592 113.126 2.47847C114.126 3.25742 114.928 4.2134 115.532 5.34641C116.137 6.47943 116.439 7.75407 116.439 9.17034C116.439 10.1381 116.218 10.9171 115.777 11.5072C115.335 12.0737 114.777 12.4986 114.102 12.7818C113.428 13.0415 112.707 13.1595 111.94 13.1359C111.172 13.0887 110.452 12.9234 109.777 12.6402C109.103 12.3333 108.545 11.9203 108.103 11.401C107.661 10.8817 107.44 10.2561 107.44 9.5244C107.44 8.53302 107.278 7.68325 106.952 6.97512C106.626 6.26699 106.08 5.93652 105.313 5.98373C104.987 6.00734 104.662 6.12536 104.336 6.3378C104.034 6.55024 103.755 6.82169 103.499 7.15215C103.266 7.45901 103.08 7.81308 102.941 8.21436C102.801 8.61563 102.743 9.02871 102.766 9.45359C102.813 10.5866 103.115 11.7078 103.673 12.8172C104.231 13.903 104.882 15.0478 105.627 16.2517C106.161 17.1014 106.696 17.9984 107.231 18.9426C107.789 19.8632 108.277 20.8309 108.696 21.8459C109.115 22.8609 109.44 23.9467 109.673 25.1033C109.905 26.2364 109.987 27.4402 109.917 28.7148C109.824 30.1783 109.498 31.4293 108.94 32.4679C108.405 33.5065 107.708 34.3563 106.847 35.0172C106.01 35.7018 105.045 36.1974 103.952 36.5043C102.883 36.8348 101.778 37 100.639 37C99.3366 37 98.0693 36.8112 96.8369 36.4335C95.6045 36.0558 94.5116 35.5129 93.5582 34.8048C92.6048 34.0966 91.8375 33.2351 91.2562 32.2201C90.6748 31.2051 90.3842 30.0603 90.3842 28.7856C90.3842 27.3458 90.5935 26.1537 91.012 25.2096C91.4538 24.2654 91.9886 23.5573 92.6165 23.0852C93.2676 22.6131 93.9651 22.3888 94.7092 22.4124C95.4533 22.436 96.1393 22.6957 96.7671 23.1914C97.4182 23.6635 97.9531 24.3834 98.3716 25.3512C98.8134 26.2954 99.0343 27.4756 99.0343 28.8919C99.0343 29.6944 99.2552 30.3435 99.697 30.8392C100.162 31.3349 100.755 31.5946 101.476 31.6182C102.127 31.6418 102.72 31.4411 103.255 31.0163C103.79 30.5914 104.092 29.8833 104.162 28.8919C104.231 27.688 104.01 26.6022 103.499 25.6344C103.011 24.6667 102.383 23.7579 101.615 22.9081C100.871 22.0348 100.081 21.1968 99.2436 20.3943C98.4065 19.5681 97.6973 18.7065 97.1159 17.8096C96.2323 16.4405 95.5347 14.9888 95.0232 13.4545C94.5349 11.9203 94.314 10.4096 94.3605 8.92249C94.407 7.71866 94.6511 6.58565 95.0929 5.52345C95.5347 4.43764 96.2207 3.49346 97.1508 2.69091C98.0809 1.86475 99.2668 1.21563 100.709 0.743542C102.15 0.247847 103.906 0 105.975 0Z" fill="white"/>
<path d="M116.574 25.2627C116.661 24.525 116.865 23.9497 117.184 23.5366C117.533 23.094 117.911 22.799 118.318 22.6514C118.754 22.4744 119.204 22.4301 119.669 22.5187C120.164 22.5777 120.585 22.7695 120.934 23.094C121.312 23.3891 121.602 23.7874 121.806 24.289C122.009 24.7906 122.053 25.3807 121.937 26.0593C121.791 26.9445 121.399 27.6231 120.759 28.0952C120.149 28.5673 119.51 28.7886 118.841 28.7591C118.173 28.7591 117.591 28.4788 117.097 27.9182C116.603 27.3576 116.429 26.4724 116.574 25.2627Z" fill="#17A16C"/>
</svg>
